<?xml version="1.0" ?><!DOCTYPE svg  PUBLIC '-//W3C//DTD SVG 1.1//EN'  'http://www.w3.org/Graphics/SVG/1.1/DTD/svg11.dtd'><svg enable-background="new 0 0 128 128" height="128px" id="Layer_1" version="1.1" viewBox="0 0 128 128" width="128px" xml:space="preserve" xmlns="http://www.w3.org/2000/svg" xmlns:xlink="http://www.w3.org/1999/xlink"><g id="fast"><path d="M116,90c0,2.2-1.8,4-4,4H87c-2.2,0-4-1.8-4-4V46c0-2.2,1.8-4,4-4h14c2.2,0,4.756,1.633,5.681,3.63   l7.638,16.491c0.925,1.996,1.681,5.43,1.681,7.63V90z" fill="#DD5345"/><path d="M89,69V50h11.854c0.138,0.052,0.338,0.179,0.442,0.283L110,69H89z" fill="#FFFFFF" opacity="0.2"/><path d="M89,67V48h11.854c0.138,0.052,0.338,0.179,0.442,0.283L110,67H89z" fill="#3688D8"/><path d="M91,50h11.095l-0.799-1.717c-0.104-0.104-0.305-0.231-0.442-0.283H89v19h2V50z" opacity="0.1"/><path d="M83,90c0,4.4-3.6,8-8,8H19c-4.4,0-8-3.6-8-8V29c0-4.4,3.6-8,8-8h56c4.4,0,8,3.6,8,8V90z" fill="#F2BA34"/><path d="M7,91c0-2.2,1.8-4,4-4h105c2.2,0,4,1.8,4,4v8c0,2.2-1.8,4-4,4H11c-2.2,0-4-1.8-4-4V91z" fill="#989898"/><path d="M116,99H11c-2.2,0-4-1.8-4-4v4c0,2.2,1.8,4,4,4h105c2.2,0,4-1.8,4-4v-4C120,97.2,118.2,99,116,99z" opacity="0.1"/><path d="M34,86c-6.617,0-12,5.383-12,12s5.383,12,12,12s12-5.383,12-12S40.617,86,34,86z M34,102   c-2.206,0-4-1.794-4-4s1.794-4,4-4s4,1.794,4,4S36.206,102,34,102z" fill="#253B4B"/><path d="M94,86c-6.617,0-12,5.383-12,12s5.383,12,12,12s12-5.383,12-12S100.617,86,94,86z M94,102   c-2.206,0-4-1.794-4-4s1.794-4,4-4s4,1.794,4,4S96.206,102,94,102z" fill="#253B4B"/><path d="M109,77h-7c-1.104,0-2-0.896-2-2s0.896-2,2-2h7c1.104,0,2,0.896,2,2S110.104,77,109,77z" fill="#253B4B"/><rect height="50" opacity="0.1" width="8" x="11" y="30"/><rect height="44" opacity="0.1" width="8" x="27" y="32"/><rect height="44" opacity="0.1" width="8" x="43" y="32"/><rect height="44" opacity="0.1" width="8" x="59" y="32"/><rect height="50" opacity="0.1" width="8" x="75" y="30"/><path d="M75,34H19c-1.104,0-2-0.896-2-2s0.896-2,2-2h56c1.104,0,2,0.896,2,2S76.104,34,75,34z" fill="#253B4B"/><path d="M75,80H19c-1.104,0-2-0.896-2-2s0.896-2,2-2h56c1.104,0,2,0.896,2,2S76.104,80,75,80z" fill="#253B4B"/><path d="M50,47c0-0.553-0.225-1.053-0.587-1.415l-6.749-6.749c-0.78-0.781-2.048-0.781-2.828,0   c-0.781,0.781-0.781,2.047,0,2.828L43.172,45H28c-1.104,0-2,0.896-2,2s0.896,2,2,2h15.172l-3.064,3.064   c-0.781,0.781-0.781,2.047,0,2.828c0.39,0.391,0.902,0.586,1.414,0.586s1.024-0.195,1.414-0.586l6.477-6.477   C49.775,48.053,50,47.553,50,47z" fill="#2F71B1"/><path d="M68,64c0-0.553-0.225-1.053-0.587-1.415l-6.749-6.749c-0.78-0.781-2.048-0.781-2.828,0   c-0.781,0.781-0.781,2.047,0,2.828L61.172,62H46c-1.104,0-2,0.896-2,2s0.896,2,2,2h15.172l-3.064,3.064   c-0.781,0.781-0.781,2.047,0,2.828c0.39,0.391,0.902,0.586,1.414,0.586s1.024-0.195,1.414-0.586l6.477-6.477   C67.775,65.053,68,64.553,68,64z" fill="#2F71B1"/></g></svg>