<?xml version="1.0" ?><svg height="462pt" id="svg2808" version="1.0" width="462pt" xmlns="http://www.w3.org/2000/svg" xmlns:cc="http://web.resource.org/cc/" xmlns:dc="http://purl.org/dc/elements/1.1/" xmlns:inkscape="http://www.inkscape.org/namespaces/inkscape" xmlns:rdf="http://www.w3.org/1999/02/22-rdf-syntax-ns#" xmlns:sodipodi="http://inkscape.sourceforge.net/DTD/sodipodi-0.dtd" xmlns:svg="http://www.w3.org/2000/svg"><defs id="defs2811"/><path d="M 52.628297,66.659024 L 527.28124,70.810281 L 530.73992,537.26097 L 48.476688,541.46346 L 52.628297,66.659024 z " id="path2821" style="fill:#fdfdfd"/><path d="M 42.182414,574.95847 C 22.461795,569.79198 10.69105,558.00757 5.2474813,537.98063 C 3.5814523,531.85128 3.4807013,517.82306 3.4807013,291.98062 C 3.4807013,65.684369 3.5787563,52.098278 5.2593043,45.545243 C 9.5064503,28.984156 18.63723,17.080236 31.980701,10.708198 C 45.365204,4.3165682 32.453282,3.9706808 211.70154,3.9740952 C 234.52798,3.97453 260.47065,3.9806294 289.9807,3.9806294 C 550.4675,3.9806294 532.97067,3.5385344 547.51568,10.487797 C 559.97892,16.442444 568.72825,27.805979 573.68839,44.480629 C 575.37614,50.154382 575.48787,63.365413 575.74322,287.44469 C 576.04314,550.62716 576.41341,535.09791 569.48867,549.76096 C 563.18687,563.10493 551.17086,572.13753 535.22642,575.51639 C 529.48253,576.7336 492.91165,576.9403 288.9807,576.90819 C 56.430206,576.8716 49.268929,576.81503 42.182414,574.95847 z M 360.60523,458.69037 C 361.03936,458.25572 331.60143,428.10447 295.18763,391.68756 C 258.77382,355.27067 228.9807,324.91543 228.9807,324.23149 C 228.9807,323.24762 256.70121,322.93499 361.7307,322.73429 L 494.4807,322.48062 L 494.74158,279.54636 C 494.94625,245.86247 494.73079,236.43965 493.74158,235.81167 C 493.0481,235.37145 432.9682,235.00435 360.2307,234.99593 C 287.4932,234.98751 227.9807,234.64437 227.9807,234.2334 C 227.9807,233.82244 257.99882,203.46556 294.68764,166.77367 C 331.37645,130.08179 361.03895,99.705549 360.6043,99.270899 C 360.16965,98.836249 333.75184,98.480629 301.89806,98.480629 L 243.98209,98.480629 L 153.73278,188.72992 L 63.483477,278.97923 L 153.45921,368.95913 L 243.43494,458.93902 L 262.45782,459.24903 C 298.23637,459.83209 359.81496,459.48157 360.60523,458.69037 z " id="path2819" style="fill:#000000"/></svg>