<?xml version="1.0" ?><!DOCTYPE svg  PUBLIC '-//W3C//DTD SVG 1.1//EN'  'http://www.w3.org/Graphics/SVG/1.1/DTD/svg11.dtd'><svg enable-background="new 0 0 512 512" height="512px" id="Layer_1" version="1.1" viewBox="0 0 512 512" width="512px" xml:space="preserve" xmlns="http://www.w3.org/2000/svg" xmlns:xlink="http://www.w3.org/1999/xlink"><path d="M432.173,253.162l-18.552-31.178c0.061-0.523,0.102-1.041,0.101-1.545l-0.211-46.978  c-0.019-5.5-3.937-12.167-8.732-14.859l-31.655-17.725c-0.208-0.483-0.432-0.953-0.685-1.389l-23.673-40.578  c-2.764-4.754-9.492-8.569-14.992-8.502l-36.457,0.479c-0.421-0.314-0.849-0.61-1.287-0.861l-40.648-23.306  c-4.771-2.736-12.545-2.676-17.273,0.132l-31.375,18.63c-0.48-0.053-0.959-0.089-1.426-0.088l-46.855,0.141  c-5.5,0.016-12.202,3.955-14.893,8.751l-17.857,31.821c-0.443,0.195-0.874,0.402-1.277,0.637l-40.507,23.549  c-4.756,2.764-8.591,9.526-8.523,15.025l0.444,36.307c-0.285,0.392-0.555,0.786-0.786,1.19l-23.306,40.787  c-2.735,4.771-2.676,12.506,0.131,17.235l18.554,31.18c-0.062,0.522-0.103,1.041-0.101,1.545l0.211,46.975  c0.016,5.5,3.936,12.169,8.73,14.861l31.657,17.725c0.209,0.483,0.433,0.953,0.686,1.389l23.669,40.576  c2.766,4.755,9.493,8.57,14.992,8.504l36.098-0.475c0.424,0.313,0.852,0.605,1.288,0.855l40.928,23.307  c4.772,2.734,12.466,2.676,17.194-0.132l30.982-18.475c0.566,0.069,1.124,0.114,1.665,0.112l47.099-0.281  c5.5-0.018,12.133-3.915,14.825-8.711l17.595-31.49c0.523-0.223,1.029-0.463,1.497-0.735l40.647-23.792  c4.755-2.766,8.55-9.457,8.483-14.957l-0.511-36.249c0.344-0.454,0.662-0.914,0.933-1.385l23.306-40.789  C435.041,265.624,434.98,257.891,432.173,253.162z" fill="#9C52A7"/><polygon fill="#CCC683" points="464.705,392 415,392 415,293 464.705,293 452.482,342.5 "/><polygon fill="#CCC683" points="29.705,392 80,392 80,293 29.705,293 41.928,342.5 "/><g><path d="M434.318,383.001c-124.289-23.709-251.938-23.709-376.227,0c-6.184-32.415-12.367-64.831-18.551-97.246   c136.545-26.048,276.783-26.048,413.328,0C446.686,318.17,440.502,350.586,434.318,383.001z" fill="#F6F18B"/></g><g><path d="M162.943,217.79v-47.544c-8.848,6.792-14.805,10.188-17.869,10.188c-1.463,0-2.76-0.583-3.893-1.75   c-1.131-1.167-1.697-2.516-1.697-4.049c0-1.776,0.557-3.083,1.672-3.918s3.082-1.915,5.904-3.239   c4.213-1.985,7.584-4.075,10.109-6.27s4.762-4.65,6.713-7.367s3.223-4.389,3.814-5.016s1.707-0.94,3.344-0.94   c1.846,0,3.326,0.714,4.441,2.142c1.113,1.429,1.672,3.396,1.672,5.904v59.822c0,7.001-2.387,10.501-7.158,10.501   c-2.125,0-3.832-0.714-5.121-2.142C163.588,222.684,162.943,220.577,162.943,217.79z" fill="#D8C8DB"/><path d="M215.787,164.818h15.873c4.129,0,7.67,0.383,10.623,1.148c2.953,0.766,5.633,2.201,8.039,4.307   c6.262,5.359,9.393,13.508,9.393,24.445c0,3.609-0.314,6.905-0.943,9.885c-0.629,2.98-1.6,5.667-2.912,8.06   c-1.313,2.393-2.994,4.532-5.045,6.419c-1.613,1.45-3.377,2.611-5.291,3.486c-1.914,0.875-3.971,1.491-6.172,1.846   c-2.201,0.355-4.684,0.533-7.445,0.533h-15.873c-2.215,0-3.883-0.334-5.004-1.005c-1.121-0.67-1.852-1.613-2.193-2.83   c-0.342-1.216-0.514-2.795-0.514-4.737v-44.092c0-2.625,0.588-4.525,1.764-5.701C211.262,165.407,213.162,164.818,215.787,164.818z    M220.504,174.457v40.811h9.229c2.023,0,3.609-0.055,4.758-0.164c1.148-0.109,2.338-0.383,3.568-0.82   c1.23-0.437,2.297-1.052,3.199-1.846c4.074-3.445,6.111-9.378,6.111-17.801c0-5.933-0.895-10.377-2.686-13.33s-4-4.833-6.625-5.64   c-2.625-0.806-5.797-1.21-9.516-1.21H220.504z" fill="#D8C8DB"/><path d="M303.594,218.139l-2.871-7.547h-24.445l-2.871,7.711c-1.121,3.008-2.078,5.039-2.871,6.091   s-2.092,1.579-3.896,1.579c-1.531,0-2.885-0.561-4.061-1.682s-1.764-2.393-1.764-3.814c0-0.82,0.137-1.667,0.41-2.543   c0.273-0.875,0.725-2.092,1.354-3.65l15.381-39.047c0.438-1.121,0.965-2.467,1.58-4.04c0.615-1.572,1.271-2.877,1.969-3.917   c0.697-1.039,1.613-1.88,2.748-2.522c1.135-0.642,2.535-0.964,4.203-0.964c1.695,0,3.111,0.322,4.246,0.964   c1.135,0.643,2.051,1.47,2.748,2.481c0.697,1.012,1.285,2.099,1.764,3.261c0.479,1.163,1.086,2.714,1.824,4.655l15.709,38.801   c1.23,2.953,1.846,5.1,1.846,6.439c0,1.395-0.58,2.673-1.742,3.835s-2.564,1.743-4.205,1.743c-0.957,0-1.777-0.171-2.461-0.513   c-0.684-0.342-1.258-0.806-1.723-1.395c-0.465-0.588-0.963-1.49-1.496-2.707C304.436,220.142,303.977,219.068,303.594,218.139z    M279.477,201.445h17.965l-9.064-24.814L279.477,201.445z" fill="#D8C8DB"/><path d="M331.559,218.549v-19.072l-14.684-22.764c-1.285-2.051-2.195-3.65-2.729-4.799s-0.799-2.146-0.799-2.994   c0-1.395,0.539-2.598,1.619-3.609c1.08-1.011,2.414-1.518,4-1.518c1.668,0,2.932,0.472,3.793,1.415s2.154,2.824,3.877,5.64   l11.238,18.252l11.361-18.252c0.684-1.121,1.258-2.064,1.723-2.83c0.465-0.765,0.977-1.483,1.537-2.153   c0.561-0.67,1.184-1.183,1.867-1.538c0.684-0.355,1.518-0.533,2.502-0.533c1.531,0,2.809,0.499,3.834,1.497   c1.025,0.999,1.539,2.153,1.539,3.466c0,1.066-0.26,2.133-0.779,3.199s-1.408,2.543-2.666,4.43l-15.053,23.092v19.072   c0,2.488-0.574,4.348-1.723,5.578s-2.611,1.846-4.389,1.846c-1.805,0-3.268-0.609-4.389-1.825S331.559,221.065,331.559,218.549z" fill="#D8C8DB"/></g><g><path d="M118.998,306.307c3.975-0.729,7.953-1.425,11.936-2.09c3.104-0.519,5.823-0.674,8.128-0.481   c2.31,0.193,4.476,0.901,6.505,2.122c5.268,3.093,8.383,8.549,9.45,16.285c0.353,2.554,0.444,4.918,0.282,7.089   c-0.164,2.172-0.595,4.172-1.305,5.999c-0.707,1.826-1.695,3.512-2.969,5.063c-1.01,1.195-2.141,2.204-3.414,3.03   c-1.27,0.828-2.673,1.49-4.196,1.989c-1.526,0.5-3.271,0.911-5.235,1.238c-3.761,0.627-7.518,1.284-11.271,1.971   c-1.568,0.287-2.795,0.273-3.68-0.047c-0.887-0.321-1.526-0.884-1.935-1.691c-0.405-0.808-0.737-1.893-0.999-3.256   c-1.969-10.312-3.934-20.624-5.902-30.936c-0.348-1.842-0.168-3.26,0.559-4.251C115.674,307.35,117.029,306.667,118.998,306.307z    M123.75,312.443c1.706,9.566,3.412,19.132,5.117,28.698c2.204-0.394,4.41-0.776,6.617-1.148c1.455-0.245,2.589-0.472,3.395-0.685   c0.812-0.211,1.635-0.544,2.47-0.994c0.837-0.449,1.536-1.005,2.096-1.668c2.55-2.891,3.403-7.3,2.505-13.251   c-0.629-4.189-1.766-7.23-3.416-9.11c-1.65-1.881-3.5-2.949-5.554-3.204c-2.048-0.255-4.464-0.152-7.237,0.318   C127.744,311.74,125.747,312.088,123.75,312.443z" fill="#8C854B"/><path d="M187.732,303.627c-6.874,0.634-13.741,1.361-20.6,2.182c0.418,3.491,0.835,6.981,1.253,10.473   c6.229-0.745,12.462-1.412,18.704-2.002c1.371-0.13,2.438,0.074,3.166,0.606c0.734,0.532,1.143,1.284,1.227,2.257   c0.086,0.974-0.18,1.796-0.785,2.469c-0.607,0.673-1.609,1.07-2.99,1.201c-6.188,0.584-12.367,1.246-18.542,1.984   c0.484,4.044,0.967,8.087,1.451,12.131c6.823-0.816,13.653-1.537,20.491-2.161c1.388-0.127,2.457,0.099,3.211,0.67   c0.756,0.572,1.18,1.383,1.268,2.434c0.086,1.012-0.193,1.864-0.834,2.558s-1.646,1.099-3.016,1.224   c-7.899,0.722-15.79,1.572-23.668,2.552c-1.895,0.236-3.305-0.004-4.246-0.729c-0.939-0.724-1.532-2.015-1.779-3.874   c-1.406-10.669-2.814-21.339-4.22-32.008c-0.163-1.238-0.101-2.275,0.187-3.111c0.285-0.836,0.83-1.487,1.618-1.953   c0.792-0.466,1.839-0.782,3.14-0.944c8.105-1.009,16.223-1.887,24.348-2.637c1.471-0.136,2.593,0.074,3.361,0.625   c0.771,0.55,1.197,1.32,1.281,2.313c0.092,1.012-0.198,1.855-0.854,2.53C190.25,303.091,189.19,303.492,187.732,303.627z" fill="#8C854B"/><path d="M205.867,299.998c0.709,10.396,1.417,20.791,2.125,31.188c5.959-0.406,11.922-0.739,17.887-1   c1.425-0.063,2.535,0.234,3.324,0.888c0.79,0.654,1.205,1.498,1.24,2.532c0.042,1.054-0.302,1.923-1.023,2.606   c-0.719,0.683-1.793,1.052-3.229,1.115c-7.036,0.307-14.067,0.717-21.093,1.229c-1.902,0.139-3.301-0.174-4.199-0.946   c-0.902-0.771-1.428-2.091-1.577-3.96c-0.882-10.99-1.763-21.979-2.645-32.97c-0.139-1.752,0.175-3.101,0.942-4.043   c0.772-0.941,1.842-1.466,3.215-1.567c1.395-0.104,2.551,0.251,3.473,1.058C205.229,296.935,205.746,298.226,205.867,299.998z" fill="#8C854B"/><path d="M233.625,332.467c-0.375-11.273-0.75-22.546-1.125-33.819c-0.055-1.757,0.32-3.089,1.145-3.994   c0.828-0.905,1.912-1.378,3.268-1.415c1.396-0.038,2.533,0.37,3.417,1.219c0.88,0.85,1.341,2.164,1.378,3.939   c0.239,11.276,0.48,22.554,0.72,33.83c0.038,1.777-0.342,3.113-1.139,4.011s-1.85,1.362-3.161,1.398   c-1.259,0.034-2.304-0.378-3.146-1.24C234.137,335.533,233.684,334.224,233.625,332.467z" fill="#8C854B"/><path d="M255.684,298.666c3.459,9.589,6.789,19.201,9.99,28.835c3.411-9.634,6.952-19.243,10.623-28.826   c0.574-1.51,1.004-2.558,1.289-3.146c0.279-0.589,0.744-1.114,1.382-1.576c0.636-0.461,1.495-0.678,2.579-0.645   c0.791,0.024,1.518,0.234,2.182,0.626c0.662,0.394,1.173,0.906,1.538,1.535c0.366,0.628,0.528,1.254,0.509,1.878   c-0.014,0.43-0.092,0.892-0.236,1.386c-0.143,0.493-0.319,0.976-0.518,1.447c-0.202,0.472-0.404,0.957-0.607,1.458   c-3.976,9.224-7.818,18.478-11.528,27.761c-0.399,1.066-0.796,2.08-1.188,3.04c-0.396,0.96-0.841,1.801-1.346,2.525   c-0.508,0.724-1.166,1.313-1.989,1.77c-0.82,0.457-1.823,0.679-2.997,0.667c-1.176-0.012-2.168-0.248-2.982-0.711   c-0.81-0.465-1.468-1.072-1.968-1.826c-0.497-0.753-0.937-1.609-1.31-2.567c-0.375-0.956-0.746-1.974-1.127-3.048   c-3.461-9.276-7.055-18.529-10.778-27.755c-0.192-0.506-0.386-1.001-0.594-1.485c-0.201-0.484-0.378-1.01-0.52-1.575   c-0.144-0.563-0.222-1.04-0.225-1.432c-0.015-0.996,0.394-1.911,1.235-2.743c0.838-0.833,1.908-1.257,3.198-1.27   c1.585-0.016,2.704,0.433,3.364,1.337C254.318,295.229,254.998,296.676,255.684,298.666z" fill="#8C854B"/><path d="M319.328,302.851c-6.879-0.553-13.764-1.013-20.652-1.379c-0.187,3.511-0.373,7.021-0.561,10.531   c6.255,0.333,12.508,0.744,18.756,1.232c1.379,0.108,2.385,0.49,3.014,1.14s0.9,1.46,0.821,2.434   c-0.081,0.975-0.481,1.739-1.195,2.298s-1.763,0.78-3.151,0.672c-6.193-0.484-12.393-0.892-18.592-1.222   c-0.216,4.066-0.433,8.133-0.648,12.199c6.852,0.365,13.699,0.825,20.541,1.382c1.385,0.112,2.4,0.519,3.049,1.211   c0.646,0.692,0.923,1.563,0.831,2.614c-0.083,1.012-0.509,1.805-1.259,2.377c-0.752,0.573-1.811,0.801-3.181,0.688   c-7.905-0.643-15.817-1.155-23.733-1.54c-1.9-0.092-3.254-0.571-4.053-1.446c-0.804-0.874-1.159-2.248-1.086-4.121   c0.443-10.753,0.886-21.506,1.328-32.258c0.053-1.248,0.285-2.26,0.717-3.034c0.427-0.773,1.068-1.323,1.926-1.646   c0.856-0.324,1.944-0.456,3.25-0.393c8.145,0.396,16.283,0.92,24.416,1.573c1.475,0.118,2.543,0.518,3.205,1.191   c0.661,0.674,0.952,1.506,0.864,2.499c-0.088,1.012-0.512,1.794-1.274,2.347C321.895,302.753,320.788,302.968,319.328,302.851z" fill="#8C854B"/><path d="M338.985,322.66c-1.042-0.113-2.085-0.225-3.128-0.334c-0.479,4.574-0.957,9.149-1.437,13.724   c-0.19,1.807-0.729,3.095-1.622,3.867c-0.893,0.771-1.982,1.093-3.268,0.966c-1.392-0.137-2.414-0.687-3.1-1.653   c-0.68-0.965-0.945-2.313-0.782-4.045c1.016-10.969,2.031-21.938,3.046-32.906c0.171-1.867,0.741-3.178,1.711-3.93   c0.971-0.751,2.449-1.033,4.439-0.835c5.004,0.501,10.002,1.05,14.998,1.648c2.069,0.248,3.826,0.552,5.271,0.902   c1.449,0.351,2.723,0.855,3.835,1.515c1.347,0.75,2.503,1.723,3.442,2.917c0.948,1.194,1.597,2.524,1.971,3.986   c0.367,1.462,0.438,2.965,0.221,4.513c-0.447,3.173-1.744,5.57-3.868,7.21c-2.122,1.641-5.114,2.603-8.983,2.922   c1.479,1.014,2.836,2.411,4.061,4.188c1.223,1.777,2.273,3.64,3.143,5.584c0.873,1.943,1.512,3.681,1.928,5.209   c0.413,1.528,0.581,2.563,0.504,3.104c-0.078,0.562-0.339,1.092-0.78,1.592c-0.44,0.5-0.995,0.865-1.661,1.097   c-0.668,0.232-1.414,0.291-2.229,0.179c-0.975-0.133-1.764-0.47-2.364-1.013c-0.603-0.543-1.097-1.195-1.485-1.955   c-0.389-0.761-0.906-1.871-1.557-3.333c-0.924-2.068-1.856-4.134-2.799-6.198c-1.01-2.269-1.953-4.017-2.83-5.241   c-0.879-1.225-1.814-2.101-2.809-2.628C341.859,323.185,340.567,322.833,338.985,322.66z M346.174,305.309   c-2.811-0.326-5.623-0.637-8.437-0.932c-0.409,3.915-0.819,7.829-1.229,11.743c2.689,0.281,5.377,0.577,8.064,0.888   c2.162,0.25,4.002,0.291,5.518,0.114c1.52-0.178,2.726-0.646,3.611-1.408c0.888-0.763,1.434-1.899,1.629-3.41   c0.149-1.181-0.028-2.263-0.546-3.244c-0.522-0.982-1.313-1.768-2.384-2.354C351.387,306.148,349.313,305.673,346.174,305.309z" fill="#8C854B"/><path d="M373.547,341.215c0.716-4.484,1.431-8.969,2.146-13.453c-2.716-5.921-5.512-11.829-8.389-17.722   c-0.75-1.589-1.273-2.816-1.555-3.686c-0.285-0.869-0.387-1.603-0.301-2.202c0.14-0.986,0.667-1.78,1.582-2.38   c0.916-0.598,1.978-0.812,3.174-0.636c1.256,0.186,2.165,0.662,2.714,1.427c0.548,0.764,1.321,2.239,2.307,4.426   c2.146,4.729,4.239,9.465,6.285,14.21c3.499-3.825,7.042-7.626,10.632-11.402c0.651-0.698,1.199-1.285,1.645-1.761   c0.449-0.475,0.922-0.91,1.426-1.305c0.507-0.396,1.041-0.672,1.599-0.827c0.562-0.155,1.212-0.166,1.949-0.029   c1.148,0.214,2.047,0.746,2.683,1.592c0.641,0.846,0.865,1.729,0.69,2.649c-0.144,0.748-0.479,1.46-1.01,2.135   s-1.39,1.585-2.569,2.734c-4.739,4.707-9.401,9.456-13.984,14.247c-0.77,4.476-1.539,8.951-2.309,13.426   c-0.297,1.752-0.934,2.99-1.898,3.718c-0.97,0.728-2.076,0.985-3.338,0.776c-1.28-0.212-2.251-0.81-2.91-1.796   C373.453,344.37,373.268,342.99,373.547,341.215z" fill="#8C854B"/></g></svg>