<?xml version="1.0" ?><!DOCTYPE svg  PUBLIC '-//W3C//DTD SVG 1.1//EN'  'http://www.w3.org/Graphics/SVG/1.1/DTD/svg11.dtd'><svg enable-background="new 0 0 128 128" height="128px" id="Layer_1" version="1.1" viewBox="0 0 128 128" width="128px" xml:space="preserve" xmlns="http://www.w3.org/2000/svg" xmlns:xlink="http://www.w3.org/1999/xlink"><g id="free_x5F_shipment"><path d="M117,90c0,2.2-1.8,4-4,4H88c-2.2,0-4-1.8-4-4V46c0-2.2,1.8-4,4-4h14c2.2,0,4.756,1.633,5.681,3.63   l7.638,16.491c0.925,1.996,1.681,5.43,1.681,7.63V90z" fill="#DD5345"/><path d="M90,69V50h11.854c0.138,0.052,0.338,0.179,0.442,0.283L111,69H90z" fill="#FFFFFF" opacity="0.2"/><path d="M90,67V48h11.854c0.138,0.052,0.338,0.179,0.442,0.283L111,67H90z" fill="#3688D8"/><path d="M92,50h11.095l-0.799-1.717c-0.104-0.104-0.305-0.231-0.442-0.283H90v19h2V50z" opacity="0.1"/><path d="M84,90c0,4.4-3.6,8-8,8H20c-4.4,0-8-3.6-8-8V29c0-4.4,3.6-8,8-8h56c4.4,0,8,3.6,8,8V90z" fill="#79BD8F"/><path d="M8,91c0-2.2,1.8-4,4-4h105c2.2,0,4,1.8,4,4v8c0,2.2-1.8,4-4,4H12c-2.2,0-4-1.8-4-4V91z" fill="#989898"/><path d="M117,99H12c-2.2,0-4-1.8-4-4v4c0,2.2,1.8,4,4,4h105c2.2,0,4-1.8,4-4v-4C121,97.2,119.2,99,117,99z" opacity="0.1"/><path d="M35,86c-6.617,0-12,5.383-12,12s5.383,12,12,12s12-5.383,12-12S41.617,86,35,86z M35,102   c-2.206,0-4-1.794-4-4s1.794-4,4-4s4,1.794,4,4S37.206,102,35,102z" fill="#253B4B"/><path d="M95,86c-6.617,0-12,5.383-12,12s5.383,12,12,12s12-5.383,12-12S101.617,86,95,86z M95,102   c-2.206,0-4-1.794-4-4s1.794-4,4-4s4,1.794,4,4S97.206,102,95,102z" fill="#253B4B"/><path d="M110,77h-7c-1.104,0-2-0.896-2-2s0.896-2,2-2h7c1.104,0,2,0.896,2,2S111.104,77,110,77z" fill="#253B4B"/><rect height="50" opacity="0.1" width="8" x="12" y="30"/><rect height="44" opacity="0.1" width="8" x="28" y="32"/><rect height="44" opacity="0.1" width="8" x="44" y="32"/><rect height="44" opacity="0.1" width="8" x="60" y="32"/><rect height="50" opacity="0.1" width="8" x="76" y="30"/><path d="M76,34H20c-1.104,0-2-0.896-2-2s0.896-2,2-2h56c1.104,0,2,0.896,2,2S77.104,34,76,34z" fill="#253B4B"/><path d="M76,80H20c-1.104,0-2-0.896-2-2s0.896-2,2-2h56c1.104,0,2,0.896,2,2S77.104,80,76,80z" fill="#253B4B"/><path d="M25.859,66.573H20.73V47.298h11.391v4.18h-6.262v3.678h5.774v4.179h-5.774V66.573z" opacity="0.1"/><path d="M40.493,59.56v7.014h-5.208V47.298h6.315c5.238,0,7.857,1.899,7.857,5.696c0,2.232-1.09,3.959-3.27,5.181   l5.616,8.398h-5.906l-4.087-7.014H40.493z M40.493,55.644h0.976c1.819,0,2.729-0.804,2.729-2.413c0-1.327-0.892-1.991-2.676-1.991   h-1.028V55.644z" opacity="0.1"/><path d="M65.001,66.573H53.558V47.298h11.443v4.18h-6.235v3.032h5.774v4.179h-5.774v3.639h6.235V66.573z" opacity="0.1"/><path d="M79.82,66.573H68.377V47.298H79.82v4.18h-6.235v3.032h5.774v4.179h-5.774v3.639h6.235V66.573z" opacity="0.1"/><path d="M23.859,64.573H18.73V45.298h11.391v4.18h-6.262v3.678h5.774v4.179h-5.774V64.573z" fill="#EDEDED"/><path d="M38.493,57.56v7.014h-5.208V45.298h6.315c5.238,0,7.857,1.899,7.857,5.696c0,2.232-1.09,3.959-3.27,5.181   l5.616,8.398h-5.906l-4.087-7.014H38.493z M38.493,53.644h0.976c1.819,0,2.729-0.804,2.729-2.413c0-1.327-0.892-1.991-2.676-1.991   h-1.028V53.644z" fill="#EDEDED"/><path d="M63.001,64.573H51.558V45.298h11.443v4.18h-6.235v3.032h5.774v4.179h-5.774v3.639h6.235V64.573z" fill="#EDEDED"/><path d="M77.82,64.573H66.377V45.298H77.82v4.18h-6.235v3.032h5.774v4.179h-5.774v3.639h6.235V64.573z" fill="#EDEDED"/></g></svg>